<svg width="412" height="85" viewBox="0 0 412 85" fill="none" xmlns="http://www.w3.org/2000/svg">
<g clip-path="url(#clip0)">
<path d="M395.43 49.6612C396.155 47.8321 396.517 45.8791 396.496 43.9114C396.476 41.9401 396.078 39.9909 395.323 38.1699C394.542 36.2794 393.393 34.5628 391.943 33.1198C389.914 31.0907 387.379 29.6667 384.609 28.9958C383.946 28.8353 383.28 28.72 382.609 28.6501C382.539 27.9792 382.424 27.3124 382.263 26.6498C381.592 23.8798 380.168 21.3445 378.139 19.3154C376.678 17.8543 374.982 16.7184 373.089 15.9364C371.262 15.1791 369.327 14.7839 367.347 14.7634C365.38 14.7392 363.426 15.1013 361.598 15.8294C359.696 16.5867 357.992 17.7062 356.539 19.159C355.169 20.5296 354.021 22.2376 353.123 24.2462C352.374 25.9254 351.782 27.8516 351.362 29.9753C350.699 33.3379 350.456 37.2932 350.633 41.7259C350.925 49.0726 352.271 55.2916 352.333 55.5509L352.683 57.1519C352.839 57.8599 353.395 58.4155 354.103 58.5719L355.704 58.9217C355.967 58.9794 362.178 60.3252 369.529 60.6216C373.962 60.7985 377.917 60.5557 381.279 59.8931C383.403 59.4732 385.334 58.8847 387.009 58.1315C389.017 57.2343 390.725 56.0859 392.096 54.7154C393.553 53.2666 394.672 51.5627 395.43 49.6612Z" fill="#FF5252"/>
<g clip-path="url(#clip1)">
<path opacity="0.2" d="M381.878 48.8679C381.504 49.2414 381.028 49.4957 380.51 49.5988C379.992 49.7018 379.456 49.6489 378.968 49.4468C378.48 49.2447 378.063 48.9024 377.769 48.4633C377.476 48.0241 377.319 47.5078 377.319 46.9797C377.319 46.4515 377.476 45.9352 377.769 45.4961C378.063 45.0569 378.48 44.7147 378.968 44.5126C379.456 44.3104 379.992 44.2576 380.51 44.3606C381.028 44.4636 381.504 44.718 381.878 45.0914C382.379 45.5922 382.66 46.2714 382.66 46.9797C382.66 47.6879 382.379 48.3671 381.878 48.8679ZM366.016 33.0066C366.39 32.6332 366.644 32.1573 366.747 31.6393C366.85 31.1213 366.797 30.5844 366.595 30.0965C366.393 29.6085 366.051 29.1915 365.612 28.898C365.173 28.6046 364.656 28.448 364.128 28.448C363.6 28.448 363.084 28.6046 362.645 28.898C362.205 29.1914 361.863 29.6085 361.661 30.0965C361.459 30.5844 361.406 31.1213 361.509 31.6393C361.612 32.1573 361.866 32.6332 362.24 33.0066C362.741 33.5074 363.42 33.7888 364.128 33.7888C364.836 33.7888 365.516 33.5074 366.016 33.0066ZM371.304 33.0066C371.677 33.3801 372.153 33.6344 372.671 33.7375C373.189 33.8405 373.726 33.7876 374.214 33.5855C374.702 33.3834 375.119 33.0411 375.412 32.602C375.706 32.1628 375.862 31.6465 375.862 31.1184C375.862 30.5902 375.706 30.0739 375.412 29.6348C375.119 29.1956 374.702 28.8534 374.214 28.6513C373.726 28.4491 373.189 28.3963 372.671 28.4993C372.153 28.6023 371.677 28.8567 371.304 29.2301C370.803 29.7309 370.521 30.4101 370.521 31.1184C370.521 31.8266 370.803 32.5058 371.304 33.0066ZM378.101 39.8043C378.475 40.1778 378.951 40.4321 379.469 40.5352C379.987 40.6382 380.523 40.5853 381.011 40.3832C381.499 40.1811 381.916 39.8388 382.21 39.3997C382.503 38.9605 382.66 38.4442 382.66 37.9161C382.66 37.3879 382.503 36.8716 382.21 36.4325C381.916 35.9933 381.499 35.6511 381.011 35.449C380.523 35.2468 379.987 35.194 379.469 35.297C378.951 35.4 378.475 35.6544 378.101 36.0278C377.6 36.5286 377.319 37.2078 377.319 37.9161C377.319 38.6243 377.6 39.3035 378.101 39.8043ZM372.756 48.782C372.335 47.3085 372.512 45.7283 373.25 44.3851L373.25 44.385C373.751 43.473 373.943 42.4228 373.796 41.3925C373.65 40.3622 373.172 39.4073 372.436 38.6714C371.701 37.9355 370.746 37.4583 369.715 37.3116C368.685 37.1648 367.635 37.3565 366.723 37.8577C365.38 38.5956 363.799 38.7733 362.326 38.3521C361.274 38.0395 360.141 38.1438 359.164 38.6435C358.186 39.1432 357.439 39.9998 357.076 41.0359C356.713 42.0719 356.762 43.2079 357.214 44.2083C357.666 45.2087 358.486 45.9968 359.503 46.4092C361.85 47.3912 363.717 49.2574 364.699 51.6044C365.111 52.6217 365.899 53.4414 366.9 53.8934C367.9 54.3454 369.036 54.3951 370.072 54.0322C371.108 53.6693 371.965 52.9216 372.464 51.9441C372.964 50.9666 373.068 49.8343 372.756 48.782Z" fill="white"/>
<path d="M382.633 44.3361C382.11 43.8133 381.444 43.4572 380.719 43.313C379.994 43.1687 379.242 43.2427 378.559 43.5257C377.876 43.8087 377.292 44.2878 376.881 44.9026C376.47 45.5174 376.251 46.2403 376.251 46.9797C376.251 47.7191 376.47 48.4419 376.881 49.0567C377.292 49.6715 377.876 50.1507 378.559 50.4336C379.242 50.7166 379.994 50.7906 380.719 50.6464C381.444 50.5021 382.11 50.1461 382.633 49.6232C383.333 48.9216 383.726 47.9709 383.726 46.9797C383.726 45.9885 383.333 45.0378 382.633 44.3361ZM378.857 48.1126C378.632 47.8885 378.48 47.6031 378.418 47.2923C378.356 46.9815 378.388 46.6593 378.509 46.3665C378.63 46.0738 378.836 45.8235 379.099 45.6475C379.363 45.4714 379.673 45.3774 379.989 45.3774C380.306 45.3774 380.616 45.4714 380.88 45.6475C381.143 45.8235 381.348 46.0738 381.47 46.3665C381.591 46.6593 381.623 46.9814 381.561 47.2923C381.499 47.6031 381.347 47.8885 381.122 48.1126C380.822 48.4127 380.414 48.5812 379.989 48.5812C379.565 48.5812 379.157 48.4127 378.857 48.1126ZM366.772 33.7619C367.295 33.2391 367.651 32.5729 367.795 31.8477C367.939 31.1225 367.865 30.3708 367.582 29.6877C367.299 29.0046 366.82 28.4207 366.205 28.0099C365.59 27.5991 364.868 27.3798 364.128 27.3798C363.389 27.3798 362.666 27.5991 362.051 28.0099C361.436 28.4207 360.957 29.0046 360.674 29.6877C360.391 30.3708 360.317 31.1225 360.461 31.8477C360.606 32.5729 360.962 33.2391 361.485 33.7619C362.186 34.462 363.137 34.8552 364.128 34.8552C365.119 34.8552 366.07 34.462 366.772 33.7619ZM362.995 32.2513C362.771 32.0272 362.619 31.7417 362.557 31.4309C362.495 31.1201 362.527 30.798 362.648 30.5052C362.769 30.2124 362.975 29.9622 363.238 29.7862C363.502 29.6101 363.811 29.5161 364.128 29.5161C364.445 29.5161 364.755 29.6101 365.018 29.7862C365.282 29.9622 365.487 30.2124 365.608 30.5052C365.73 30.798 365.761 31.1201 365.7 31.4309C365.638 31.7417 365.485 32.0272 365.261 32.2513C364.96 32.5514 364.553 32.7199 364.128 32.7199C363.703 32.7199 363.296 32.5514 362.995 32.2513ZM370.548 33.7619C371.071 34.2848 371.737 34.6408 372.462 34.7851C373.188 34.9293 373.939 34.8553 374.622 34.5723C375.306 34.2894 375.889 33.8102 376.3 33.1954C376.711 32.5806 376.93 31.8578 376.93 31.1184C376.93 30.379 376.711 29.6561 376.3 29.0413C375.889 28.4265 375.306 27.9474 374.622 27.6644C373.939 27.3814 373.188 27.3074 372.462 27.4517C371.737 27.5959 371.071 27.952 370.548 28.4748C369.848 29.1765 369.455 30.1272 369.455 31.1184C369.455 32.1096 369.848 33.0603 370.548 33.7619ZM374.325 29.9854C374.549 30.2095 374.701 30.495 374.763 30.8058C374.825 31.1166 374.793 31.4387 374.672 31.7315C374.551 32.0243 374.345 32.2745 374.082 32.4506C373.818 32.6266 373.509 32.7206 373.192 32.7206C372.875 32.7206 372.565 32.6266 372.302 32.4506C372.038 32.2745 371.833 32.0243 371.712 31.7315C371.59 31.4387 371.559 31.1166 371.62 30.8058C371.682 30.495 371.835 30.2095 372.059 29.9854C372.36 29.6854 372.767 29.5169 373.192 29.5169C373.617 29.5169 374.024 29.6854 374.325 29.9854ZM377.346 40.5596C377.869 41.0825 378.535 41.4385 379.26 41.5828C379.985 41.727 380.737 41.653 381.42 41.37C382.103 41.0871 382.687 40.6079 383.098 39.9931C383.509 39.3783 383.728 38.6555 383.728 37.9161C383.728 37.1767 383.509 36.4538 383.098 35.839C382.687 35.2242 382.103 34.7451 381.42 34.4621C380.737 34.1791 379.985 34.1051 379.26 34.2494C378.535 34.3936 377.869 34.7497 377.346 35.2725C376.646 35.9742 376.253 36.9249 376.253 37.9161C376.253 38.9073 376.646 39.858 377.346 40.5596ZM381.122 36.7831C381.347 37.0072 381.499 37.2927 381.561 37.6035C381.623 37.9143 381.591 38.2364 381.47 38.5292C381.348 38.822 381.143 39.0722 380.88 39.2483C380.616 39.4243 380.306 39.5183 379.989 39.5183C379.673 39.5183 379.363 39.4243 379.099 39.2483C378.836 39.0722 378.63 38.822 378.509 38.5292C378.388 38.2364 378.356 37.9143 378.418 37.6035C378.48 37.2927 378.632 37.0072 378.857 36.7831C379.157 36.4831 379.565 36.3146 379.989 36.3146C380.414 36.3146 380.822 36.4831 381.122 36.7831ZM373.782 48.4843C373.436 47.2831 373.582 45.9939 374.186 44.8999C374.799 43.7851 375.033 42.5016 374.854 41.2422C374.675 39.9829 374.091 38.8157 373.192 37.9162C372.293 37.0166 371.126 36.4333 369.866 36.254C368.607 36.0746 367.323 36.3089 366.208 36.9215C365.116 37.5257 363.829 37.6719 362.63 37.328C361.315 36.9375 359.901 37.0675 358.68 37.6909C357.459 38.3143 356.524 39.3835 356.069 40.6771C355.614 41.9707 355.675 43.3896 356.237 44.64C356.8 45.8905 357.822 46.8768 359.091 47.3946C361.179 48.2612 362.838 49.9185 363.708 52.0047C364.223 53.276 365.208 54.3005 366.457 54.8659C367.707 55.4313 369.126 55.4942 370.421 55.0417C371.716 54.5892 372.787 53.6558 373.413 52.4351C374.039 51.2143 374.171 49.7997 373.782 48.4843ZM366.394 52.2668C366.087 51.9604 365.845 51.5948 365.684 51.1922C364.597 48.5787 362.519 46.5026 359.904 45.4188C359.14 45.1091 358.524 44.5169 358.186 43.7652C357.847 43.0136 357.811 42.1603 358.085 41.3827C358.359 40.6051 358.922 39.963 359.657 39.5899C360.392 39.2168 361.243 39.1413 362.033 39.3791C362.896 39.6282 363.8 39.7047 364.693 39.6043C365.586 39.5038 366.451 39.2284 367.238 38.7937C367.947 38.404 368.764 38.2551 369.565 38.3693C370.366 38.4835 371.109 38.8546 371.681 39.427C372.254 39.9993 372.625 40.742 372.739 41.5433C372.853 42.3446 372.704 43.1613 372.314 43.8707C371.879 44.6572 371.604 45.5217 371.504 46.4148C371.403 47.3078 371.48 48.2119 371.729 49.0753L371.732 49.0856C371.935 49.769 371.905 50.5007 371.646 51.1649C371.386 51.8292 370.913 52.388 370.301 52.753C369.688 53.1181 368.971 53.2684 368.264 53.1804C367.556 53.0923 366.898 52.7708 366.394 52.2668Z" fill="white"/>
</g>
</g>
<path d="M10.1094 31.2149V44.668H16.8359C17.7578 44.668 18.625 44.4961 19.4375 44.1524C20.25 43.793 20.9609 43.3086 21.5703 42.6992C22.1797 42.0899 22.6562 41.3789 23 40.5664C23.3594 39.7383 23.5391 38.8633 23.5391 37.9414C23.5391 37.0196 23.3594 36.1524 23 35.3399C22.6562 34.5117 22.1797 33.793 21.5703 33.1836C20.9609 32.5742 20.25 32.0977 19.4375 31.7539C18.625 31.3946 17.7578 31.2149 16.8359 31.2149H10.1094ZM10.1094 58.0977H3.38281V24.4883H16.8359C18.0703 24.4883 19.2578 24.6524 20.3984 24.9805C21.5391 25.293 22.6016 25.7461 23.5859 26.3399C24.5859 26.918 25.4922 27.6211 26.3047 28.4492C27.1328 29.2617 27.8359 30.168 28.4141 31.168C29.0078 32.168 29.4609 33.2383 29.7734 34.3789C30.1016 35.5196 30.2656 36.7071 30.2656 37.9414C30.2656 39.7852 29.9141 41.5274 29.2109 43.168C28.5078 44.793 27.5469 46.2149 26.3281 47.4336C25.1094 48.6524 23.6797 49.6133 22.0391 50.3164C20.4141 51.0196 18.6797 51.3711 16.8359 51.3711H10.1094V58.0977ZM237.5 58.0977H230.797V34.0977C230.797 33.6289 230.703 33.1914 230.516 32.7852C230.344 32.3789 230.102 32.0274 229.789 31.7305C229.492 31.418 229.141 31.1758 228.734 31.0039C228.328 30.8321 227.891 30.7461 227.422 30.7461C226.953 30.7461 226.516 30.8321 226.109 31.0039C225.703 31.1758 225.344 31.418 225.031 31.7305C224.734 32.0274 224.5 32.3789 224.328 32.7852C224.156 33.1914 224.07 33.6289 224.07 34.0977V58.0977H217.344V34.0977C217.344 33.6289 217.258 33.1914 217.086 32.7852C216.914 32.3789 216.672 32.0274 216.359 31.7305C216.062 31.418 215.711 31.1758 215.305 31.0039C214.898 30.8321 214.461 30.7461 213.992 30.7461C213.523 30.7461 213.086 30.8321 212.68 31.0039C212.273 31.1758 211.914 31.418 211.602 31.7305C211.305 32.0274 211.07 32.3789 210.898 32.7852C210.727 33.1914 210.641 33.6289 210.641 34.0977V58.0977H203.914V34.0977C203.914 32.7071 204.172 31.4024 204.688 30.1836C205.219 28.9492 205.938 27.8789 206.844 26.9727C207.766 26.0508 208.836 25.3321 210.055 24.8164C211.289 24.2852 212.602 24.0196 213.992 24.0196C215.242 24.0196 216.445 24.2461 217.602 24.6992C218.758 25.1367 219.797 25.7774 220.719 26.6211C221.641 25.7774 222.672 25.1367 223.812 24.6992C224.969 24.2461 226.172 24.0196 227.422 24.0196C228.812 24.0196 230.117 24.2852 231.336 24.8164C232.57 25.3321 233.641 26.0508 234.547 26.9727C235.469 27.8789 236.188 28.9492 236.703 30.1836C237.234 31.4024 237.5 32.7071 237.5 34.0977V58.0977Z" fill="#FF5252"/>
<path d="M51.9922 55.168C51.4766 55.6367 50.9219 56.0821 50.3281 56.5039C49.75 56.9102 49.1406 57.2696 48.5 57.5821C47.8594 57.8789 47.1953 58.1133 46.5078 58.2852C45.8359 58.4727 45.1484 58.5664 44.4453 58.5664C42.8984 58.5664 41.4453 58.293 40.0859 57.7461C38.7266 57.1992 37.5312 56.4258 36.5 55.4258C35.4844 54.4102 34.6797 53.1836 34.0859 51.7461C33.5078 50.293 33.2188 48.668 33.2188 46.8711V32.9961H39.5938V46.8711C39.5938 47.7149 39.7188 48.4727 39.9688 49.1446C40.2344 49.8008 40.5859 50.3555 41.0234 50.8086C41.4609 51.2617 41.9688 51.6055 42.5469 51.8399C43.1406 52.0742 43.7734 52.1914 44.4453 52.1914C45.1016 52.1914 45.7188 52.043 46.2969 51.7461C46.8906 51.4336 47.4062 51.0274 47.8438 50.5274C48.2812 50.0274 48.625 49.4649 48.875 48.8399C49.125 48.1992 49.25 47.543 49.25 46.8711V32.9961H55.6484V58.0977H54.1016L51.9922 55.168ZM66.9453 58.0977H60.5469V32.9961H62.0938L64.2031 35.9727C65.2344 35.0352 66.4062 34.3164 67.7188 33.8164C69.0312 33.3008 70.3906 33.043 71.7969 33.043H77.4453V39.418H71.7969C71.125 39.418 70.4922 39.543 69.8984 39.793C69.3047 40.043 68.7891 40.3867 68.3516 40.8242C67.9141 41.2617 67.5703 41.7774 67.3203 42.3711C67.0703 42.9649 66.9453 43.5977 66.9453 44.2696V58.0977ZM86.8203 58.0977H80.4219V32.9961H81.9688L84.0781 35.9727C85.1094 35.0352 86.2812 34.3164 87.5938 33.8164C88.9062 33.3008 90.2656 33.043 91.6719 33.043H97.3203V39.418H91.6719C91 39.418 90.3672 39.543 89.7734 39.793C89.1797 40.043 88.6641 40.3867 88.2266 40.8242C87.7891 41.2617 87.4453 41.7774 87.1953 42.3711C86.9453 42.9649 86.8203 43.5977 86.8203 44.2696V58.0977ZM108.43 58.0977H102.031V39.3711H98.9141V32.9961H102.031V31.8008C102.031 30.2539 102.32 28.8008 102.898 27.4414C103.492 26.0821 104.297 24.9024 105.312 23.9024C106.344 22.8867 107.539 22.0899 108.898 21.5117C110.258 20.918 111.711 20.6211 113.258 20.6211H118.062V26.9961H113.258C112.57 26.9961 111.93 27.1211 111.336 27.3711C110.758 27.6055 110.25 27.9414 109.812 28.3789C109.391 28.8008 109.055 29.3086 108.805 29.9024C108.555 30.4805 108.43 31.1133 108.43 31.8008V32.9961H116.281V39.3711H108.43V58.0977ZM128.844 51.9571C129.094 52.0352 129.344 52.0899 129.594 52.1211C129.844 52.1367 130.094 52.1446 130.344 52.1446C130.969 52.1446 131.57 52.0586 132.148 51.8867C132.727 51.7149 133.266 51.4727 133.766 51.1602C134.281 50.8321 134.734 50.4414 135.125 49.9883C135.531 49.5196 135.859 49.0039 136.109 48.4414L140.797 53.1524C140.203 53.9961 139.516 54.7539 138.734 55.4258C137.969 56.0977 137.133 56.668 136.227 57.1367C135.336 57.6055 134.391 57.9571 133.391 58.1914C132.406 58.4414 131.391 58.5664 130.344 58.5664C128.578 58.5664 126.914 58.2383 125.352 57.5821C123.805 56.9258 122.445 56.0117 121.273 54.8399C120.117 53.668 119.203 52.2774 118.531 50.668C117.859 49.043 117.523 47.2617 117.523 45.3242C117.523 43.3399 117.859 41.5274 118.531 39.8867C119.203 38.2461 120.117 36.8477 121.273 35.6914C122.445 34.5352 123.805 33.6367 125.352 32.9961C126.914 32.3555 128.578 32.0352 130.344 32.0352C131.391 32.0352 132.414 32.1602 133.414 32.4102C134.414 32.6602 135.359 33.0196 136.25 33.4883C137.156 33.9571 138 34.5352 138.781 35.2227C139.562 35.8946 140.25 36.6524 140.844 37.4961L128.844 51.9571ZM132.125 38.7617C131.828 38.6524 131.531 38.5821 131.234 38.5508C130.953 38.5196 130.656 38.5039 130.344 38.5039C129.469 38.5039 128.641 38.668 127.859 38.9961C127.094 39.3086 126.422 39.7617 125.844 40.3555C125.281 40.9492 124.836 41.668 124.508 42.5117C124.18 43.3399 124.016 44.2774 124.016 45.3242C124.016 45.5586 124.023 45.8242 124.039 46.1211C124.07 46.418 124.109 46.7227 124.156 47.0352C124.219 47.3321 124.289 47.6211 124.367 47.9024C124.445 48.1836 124.547 48.4336 124.672 48.6524L132.125 38.7617ZM165.828 37.9883L161.141 42.6992C160.906 42.043 160.586 41.4571 160.18 40.9414C159.773 40.4102 159.312 39.9649 158.797 39.6055C158.297 39.2461 157.75 38.9727 157.156 38.7852C156.562 38.5977 155.953 38.5039 155.328 38.5039C154.453 38.5039 153.625 38.6836 152.844 39.043C152.078 39.4024 151.406 39.9102 150.828 40.5664C150.266 41.2071 149.82 41.9727 149.492 42.8633C149.164 43.7539 149 44.7383 149 45.8164C149 46.6914 149.164 47.5117 149.492 48.2774C149.82 49.043 150.266 49.7149 150.828 50.293C151.406 50.8711 152.078 51.3242 152.844 51.6524C153.625 51.9805 154.453 52.1446 155.328 52.1446C155.953 52.1446 156.555 52.0586 157.133 51.8867C157.711 51.7149 158.25 51.4727 158.75 51.1602C159.266 50.8321 159.719 50.4414 160.109 49.9883C160.516 49.5196 160.844 49.0039 161.094 48.4414L165.781 53.1524C165.188 53.9961 164.5 54.7539 163.719 55.4258C162.953 56.0977 162.117 56.668 161.211 57.1367C160.32 57.6055 159.375 57.9571 158.375 58.1914C157.391 58.4414 156.375 58.5664 155.328 58.5664C153.562 58.5664 151.898 58.2383 150.336 57.5821C148.789 56.9102 147.43 55.9961 146.258 54.8399C145.102 53.6836 144.188 52.3321 143.516 50.7852C142.844 49.2383 142.508 47.5821 142.508 45.8164C142.508 43.8946 142.844 42.0977 143.516 40.4258C144.188 38.7539 145.102 37.3008 146.258 36.0664C147.43 34.8164 148.789 33.8321 150.336 33.1133C151.898 32.3946 153.562 32.0352 155.328 32.0352C156.375 32.0352 157.398 32.168 158.398 32.4336C159.414 32.6992 160.375 33.0899 161.281 33.6055C162.203 34.1055 163.047 34.7227 163.812 35.4571C164.594 36.1914 165.266 37.0352 165.828 37.9883ZM181.555 58.0977C180.008 58.0977 178.555 57.8086 177.195 57.2305C175.836 56.6367 174.641 55.8321 173.609 54.8164C172.594 53.7852 171.789 52.5899 171.195 51.2305C170.617 49.8711 170.328 48.418 170.328 46.8711V39.418H167.211V33.043H170.328V23.0117H176.703V33.043H186.406V39.418H176.703V46.8711C176.703 47.543 176.828 48.1758 177.078 48.7696C177.328 49.3477 177.672 49.8555 178.109 50.293C178.547 50.7305 179.062 51.0821 179.656 51.3477C180.25 51.5977 180.883 51.7227 181.555 51.7227H186.406V58.0977H181.555ZM267.148 58.0977H265.602L263.117 54.6524C262.508 55.1992 261.859 55.7149 261.172 56.1992C260.5 56.668 259.789 57.0821 259.039 57.4414C258.289 57.7852 257.516 58.0586 256.719 58.2617C255.938 58.4649 255.141 58.5664 254.328 58.5664C252.562 58.5664 250.898 58.2696 249.336 57.6758C247.789 57.0821 246.43 56.2227 245.258 55.0977C244.102 53.9571 243.188 52.5664 242.516 50.9258C241.844 49.2852 241.508 47.418 241.508 45.3242C241.508 43.3711 241.844 41.5821 242.516 39.9571C243.188 38.3164 244.102 36.9102 245.258 35.7383C246.43 34.5664 247.789 33.6602 249.336 33.0196C250.898 32.3633 252.562 32.0352 254.328 32.0352C255.141 32.0352 255.945 32.1367 256.742 32.3399C257.539 32.543 258.312 32.8242 259.062 33.1836C259.812 33.543 260.523 33.9649 261.195 34.4492C261.883 34.9336 262.523 35.4571 263.117 36.0196L265.602 33.043H267.148V58.0977ZM260.703 45.3242C260.703 44.4492 260.531 43.6055 260.188 42.793C259.859 41.9649 259.406 41.2383 258.828 40.6133C258.25 39.9727 257.57 39.4649 256.789 39.0899C256.023 38.6992 255.203 38.5039 254.328 38.5039C253.453 38.5039 252.625 38.6524 251.844 38.9492C251.078 39.2461 250.406 39.6836 249.828 40.2617C249.266 40.8399 248.82 41.5586 248.492 42.418C248.164 43.2617 248 44.2305 248 45.3242C248 46.418 248.164 47.3946 248.492 48.2539C248.82 49.0977 249.266 49.8086 249.828 50.3867C250.406 50.9649 251.078 51.4024 251.844 51.6992C252.625 51.9961 253.453 52.1446 254.328 52.1446C255.203 52.1446 256.023 51.9571 256.789 51.5821C257.57 51.1914 258.25 50.6836 258.828 50.0586C259.406 49.418 259.859 48.6914 260.188 47.8789C260.531 47.0508 260.703 46.1992 260.703 45.3242ZM284.633 58.0977C283.086 58.0977 281.633 57.8086 280.273 57.2305C278.914 56.6367 277.719 55.8321 276.688 54.8164C275.672 53.7852 274.867 52.5899 274.273 51.2305C273.695 49.8711 273.406 48.418 273.406 46.8711V39.418H270.289V33.043H273.406V23.0117H279.781V33.043H289.484V39.418H279.781V46.8711C279.781 47.543 279.906 48.1758 280.156 48.7696C280.406 49.3477 280.75 49.8555 281.188 50.293C281.625 50.7305 282.141 51.0821 282.734 51.3477C283.328 51.5977 283.961 51.7227 284.633 51.7227H289.484V58.0977H284.633ZM315.031 37.9883L310.344 42.6992C310.109 42.043 309.789 41.4571 309.383 40.9414C308.977 40.4102 308.516 39.9649 308 39.6055C307.5 39.2461 306.953 38.9727 306.359 38.7852C305.766 38.5977 305.156 38.5039 304.531 38.5039C303.656 38.5039 302.828 38.6836 302.047 39.043C301.281 39.4024 300.609 39.9102 300.031 40.5664C299.469 41.2071 299.023 41.9727 298.695 42.8633C298.367 43.7539 298.203 44.7383 298.203 45.8164C298.203 46.6914 298.367 47.5117 298.695 48.2774C299.023 49.043 299.469 49.7149 300.031 50.293C300.609 50.8711 301.281 51.3242 302.047 51.6524C302.828 51.9805 303.656 52.1446 304.531 52.1446C305.156 52.1446 305.758 52.0586 306.336 51.8867C306.914 51.7149 307.453 51.4727 307.953 51.1602C308.469 50.8321 308.922 50.4414 309.312 49.9883C309.719 49.5196 310.047 49.0039 310.297 48.4414L314.984 53.1524C314.391 53.9961 313.703 54.7539 312.922 55.4258C312.156 56.0977 311.32 56.668 310.414 57.1367C309.523 57.6055 308.578 57.9571 307.578 58.1914C306.594 58.4414 305.578 58.5664 304.531 58.5664C302.766 58.5664 301.102 58.2383 299.539 57.5821C297.992 56.9102 296.633 55.9961 295.461 54.8399C294.305 53.6836 293.391 52.3321 292.719 50.7852C292.047 49.2383 291.711 47.5821 291.711 45.8164C291.711 43.8946 292.047 42.0977 292.719 40.4258C293.391 38.7539 294.305 37.3008 295.461 36.0664C296.633 34.8164 297.992 33.8321 299.539 33.1133C301.102 32.3946 302.766 32.0352 304.531 32.0352C305.578 32.0352 306.602 32.168 307.602 32.4336C308.617 32.6992 309.578 33.0899 310.484 33.6055C311.406 34.1055 312.25 34.7227 313.016 35.4571C313.797 36.1914 314.469 37.0352 315.031 37.9883ZM324.57 58.0977H318.172V23.0117H324.57V34.0977C325.336 33.5196 326.125 33.1133 326.938 32.8789C327.75 32.6289 328.578 32.5039 329.422 32.5039C330.969 32.5039 332.422 32.8008 333.781 33.3946C335.141 33.9727 336.32 34.7774 337.32 35.8086C338.336 36.8242 339.133 38.0196 339.711 39.3946C340.305 40.7539 340.602 42.2071 340.602 43.7539V58.0977H334.156V43.7539H334.203C334.203 43.0977 334.078 42.4805 333.828 41.9024C333.578 41.3086 333.234 40.793 332.797 40.3555C332.359 39.918 331.852 39.5742 331.273 39.3242C330.695 39.0742 330.078 38.9492 329.422 38.9492C328.75 38.9492 328.117 39.0742 327.523 39.3242C326.93 39.5742 326.414 39.918 325.977 40.3555C325.539 40.793 325.195 41.3086 324.945 41.9024C324.695 42.4805 324.57 43.0977 324.57 43.7539V58.0977Z" fill="#263238"/>
<defs>
<clipPath id="clip0">
<rect width="59.6031" height="59.6031" fill="white" transform="translate(369.113) rotate(45)"/>
</clipPath>
<clipPath id="clip1">
<rect width="34.181" height="34.181" fill="white" transform="translate(370.171 16.7677) rotate(45)"/>
</clipPath>
</defs>
</svg>
