<svg width="228" height="228" viewBox="0 0 228 228" fill="none" xmlns="http://www.w3.org/2000/svg">
<path d="M222.589 172.702C226.175 163.664 227.964 154.013 227.856 144.29C227.759 134.549 225.792 124.918 222.06 115.919C218.202 106.578 212.526 98.0953 205.363 90.965C195.336 80.9385 182.809 73.9017 169.121 70.5867C165.847 69.7935 162.552 69.224 159.237 68.8783C158.891 65.5633 158.322 62.2686 157.529 58.9942C154.214 45.307 147.177 32.779 137.15 22.7525C129.931 15.5327 121.552 9.91948 112.196 6.05533C103.166 2.3132 93.6076 0.360789 83.8252 0.259102C74.1013 0.139495 64.4483 1.92912 55.4135 5.52655C46.0175 9.26868 37.5978 14.8005 30.4186 21.9797C23.6461 28.7521 17.9719 37.1923 13.5383 47.117C9.83687 55.4148 6.90825 64.9328 4.83381 75.427C1.55945 92.0429 0.359502 111.587 1.23402 133.491C2.67799 169.794 9.32841 200.524 9.63347 201.805L11.3622 209.716C12.135 213.215 14.8806 215.96 18.3787 216.733L26.29 218.462C27.5916 218.746 58.2811 225.397 94.6041 226.861C116.508 227.736 136.052 226.536 152.668 223.261C163.162 221.187 172.701 218.279 180.978 214.557C190.903 210.123 199.343 204.449 206.115 197.677C213.315 190.518 218.847 182.098 222.589 172.702Z" fill="#FF5252"/>
<path opacity="0.2" d="M155.624 168.782C153.779 170.628 151.428 171.884 148.868 172.394C146.309 172.903 143.655 172.641 141.244 171.643C138.833 170.644 136.772 168.953 135.322 166.783C133.872 164.613 133.099 162.062 133.099 159.452C133.099 156.842 133.872 154.291 135.322 152.121C136.772 149.951 138.833 148.26 141.244 147.261C143.655 146.262 146.309 146.001 148.868 146.51C151.428 147.019 153.779 148.276 155.624 150.121C158.099 152.596 159.489 155.952 159.489 159.452C159.489 162.951 158.099 166.308 155.624 168.782ZM77.248 90.4058C79.0934 88.5604 80.3501 86.2092 80.8592 83.6495C81.3684 81.0899 81.1071 78.4367 80.1083 76.0256C79.1096 73.6145 77.4183 71.5536 75.2484 70.1037C73.0784 68.6538 70.5272 67.8799 67.9174 67.8799C65.3076 67.8799 62.7564 68.6538 60.5865 70.1037C58.4165 71.5536 56.7252 73.6145 55.7265 76.0256C54.7278 78.4367 54.4665 81.0899 54.9756 83.6495C55.4847 86.2092 56.7415 88.5604 58.5869 90.4058C61.0615 92.8804 64.4178 94.2706 67.9174 94.2706C71.4171 94.2706 74.7733 92.8804 77.248 90.4058ZM103.373 90.4058C105.219 92.2512 107.57 93.5079 110.13 94.0171C112.689 94.5262 115.342 94.2649 117.754 93.2662C120.165 92.2675 122.226 90.5762 123.676 88.4062C125.125 86.2362 125.899 83.6851 125.899 81.0753C125.899 78.4655 125.125 75.9143 123.676 73.7443C122.226 71.5743 120.165 69.8831 117.754 68.8843C115.342 67.8856 112.689 67.6243 110.13 68.1334C107.57 68.6426 105.219 69.8993 103.373 71.7447C100.899 74.2193 99.5086 77.5756 99.5086 81.0753C99.5086 84.5749 100.899 87.9312 103.373 90.4058ZM136.963 123.996C138.809 125.841 141.16 127.098 143.72 127.607C146.279 128.116 148.932 127.855 151.344 126.856C153.755 125.857 155.816 124.166 157.265 121.996C158.715 119.826 159.489 117.275 159.489 114.665C159.489 112.055 158.715 109.504 157.265 107.334C155.816 105.164 153.755 103.473 151.344 102.474C148.932 101.476 146.279 101.214 143.72 101.723C141.16 102.233 138.809 103.489 136.963 105.335C134.489 107.809 133.099 111.166 133.099 114.665C133.099 118.165 134.489 121.521 136.963 123.996ZM110.55 168.358C108.468 161.077 109.346 153.268 112.993 146.631C115.47 142.124 116.416 136.935 115.691 131.843C114.966 126.752 112.608 122.034 108.972 118.397C105.335 114.761 100.617 112.403 95.5257 111.678C90.4345 110.953 85.2454 111.9 80.7385 114.377C74.1013 118.023 66.2927 118.901 59.0114 116.82C53.8115 115.275 48.2165 115.791 43.3865 118.26C38.5565 120.729 34.8618 124.962 33.0685 130.081C31.2752 135.201 31.5207 140.814 33.7542 145.757C35.9877 150.701 40.0379 154.595 45.0651 156.633C56.6623 161.485 65.8839 170.707 70.7362 182.304C72.7741 187.331 76.6683 191.381 81.6117 193.615C86.5551 195.848 92.1684 196.094 97.2879 194.301C102.407 192.507 106.64 188.813 109.109 183.983C111.579 179.153 112.094 173.558 110.55 168.358Z" fill="white"/>
<path d="M159.357 146.389C156.773 143.805 153.481 142.046 149.898 141.333C146.314 140.62 142.6 140.986 139.224 142.384C135.849 143.783 132.964 146.15 130.934 149.188C128.904 152.226 127.82 155.798 127.82 159.452C127.82 163.105 128.904 166.677 130.934 169.715C132.964 172.753 135.849 175.121 139.224 176.519C142.6 177.917 146.314 178.283 149.898 177.57C153.481 176.857 156.773 175.098 159.357 172.514C162.816 169.047 164.759 164.349 164.759 159.452C164.759 154.554 162.816 149.856 159.357 146.389ZM140.696 165.05C139.588 163.943 138.834 162.532 138.529 160.996C138.223 159.46 138.38 157.869 138.979 156.422C139.579 154.975 140.593 153.739 141.895 152.869C143.197 151.999 144.728 151.534 146.294 151.534C147.86 151.534 149.39 151.999 150.692 152.869C151.994 153.739 153.009 154.975 153.608 156.422C154.208 157.869 154.364 159.46 154.059 160.996C153.753 162.532 152.999 163.943 151.892 165.05C150.406 166.533 148.393 167.365 146.294 167.365C144.195 167.365 142.181 166.533 140.696 165.05ZM80.9801 94.1379C83.5637 91.5544 85.3231 88.2627 86.0359 84.6792C86.7487 81.0957 86.3829 77.3813 84.9847 74.0057C83.5865 70.6301 81.2187 67.7449 78.1807 65.715C75.1428 63.6851 71.5711 62.6017 67.9174 62.6017C64.2637 62.6017 60.692 63.6851 57.6541 65.715C54.6161 67.7449 52.2483 70.6301 50.8501 74.0057C49.4519 77.3813 49.086 81.0957 49.7988 84.6792C50.5116 88.2627 52.2711 91.5544 54.8546 94.1379C58.3218 97.5974 63.0196 99.5403 67.9174 99.5403C72.8152 99.5403 77.513 97.5974 80.9801 94.1379ZM62.3191 86.6735C61.2118 85.5663 60.4578 84.1556 60.1523 82.6198C59.8468 81.084 60.0036 79.4921 60.6028 78.0454C61.2021 76.5987 62.2168 75.3622 63.5188 74.4923C64.8208 73.6223 66.3515 73.158 67.9174 73.158C69.4833 73.158 71.014 73.6223 72.316 74.4923C73.6179 75.3622 74.6327 76.5987 75.2319 78.0454C75.8312 79.4921 75.988 81.084 75.6825 82.6198C75.377 84.1556 74.6229 85.5663 73.5157 86.6735C72.0298 88.1562 70.0165 88.9889 67.9174 88.9889C65.8183 88.9889 63.8049 88.1562 62.3191 86.6735ZM99.6412 94.1379C102.225 96.7215 105.516 98.4809 109.1 99.1938C112.683 99.9066 116.398 99.5407 119.773 98.1425C123.149 96.7443 126.034 94.3765 128.064 91.3385C130.094 88.3006 131.177 84.7289 131.177 81.0752C131.177 77.4215 130.094 73.8498 128.064 70.8119C126.034 67.7739 123.149 65.4061 119.773 64.0079C116.398 62.6097 112.683 62.2439 109.1 62.9567C105.516 63.6695 102.225 65.4289 99.6412 68.0125C96.1817 71.4796 94.2389 76.1774 94.2389 81.0752C94.2389 85.973 96.1817 90.6708 99.6412 94.1379ZM118.302 75.4769C119.409 76.5841 120.164 77.9948 120.469 79.5306C120.775 81.0664 120.618 82.6583 120.018 84.105C119.419 85.5517 118.404 86.7882 117.103 87.6581C115.801 88.5281 114.27 88.9924 112.704 88.9924C111.138 88.9924 109.607 88.5281 108.305 87.6581C107.003 86.7882 105.989 85.5517 105.389 84.105C104.79 82.6583 104.633 81.0664 104.939 79.5306C105.244 77.9948 105.998 76.5841 107.106 75.4769C108.591 73.9942 110.605 73.1615 112.704 73.1615C114.803 73.1615 116.816 73.9942 118.302 75.4769ZM133.231 127.728C135.815 130.311 139.106 132.071 142.69 132.784C146.273 133.496 149.988 133.131 153.363 131.732C156.739 130.334 159.624 127.966 161.654 124.928C163.684 121.891 164.767 118.319 164.767 114.665C164.767 111.011 163.684 107.44 161.654 104.402C159.624 101.364 156.739 98.996 153.363 97.5978C149.988 96.1996 146.273 95.8338 142.69 96.5466C139.106 97.2594 135.815 99.0188 133.231 101.602C129.772 105.069 127.829 109.767 127.829 114.665C127.829 119.563 129.772 124.261 133.231 127.728ZM151.892 109.067C152.999 110.174 153.753 111.585 154.059 113.121C154.364 114.656 154.208 116.248 153.608 117.695C153.009 119.142 151.994 120.378 150.692 121.248C149.39 122.118 147.86 122.582 146.294 122.582C144.728 122.582 143.197 122.118 141.895 121.248C140.593 120.378 139.579 119.142 138.979 117.695C138.38 116.248 138.223 114.656 138.529 113.121C138.834 111.585 139.588 110.174 140.696 109.067C142.181 107.584 144.195 106.751 146.294 106.751C148.393 106.751 150.406 107.584 151.892 109.067ZM115.618 166.887C113.912 160.951 114.63 154.581 117.616 149.175C120.644 143.666 121.802 137.324 120.917 131.101C120.031 124.878 117.15 119.11 112.705 114.666C108.261 110.221 102.494 107.338 96.2709 106.452C90.0479 105.566 83.7055 106.723 78.1968 109.751C72.801 112.736 66.441 113.459 60.5131 111.759C54.0182 109.83 47.0301 110.472 40.9954 113.552C34.9608 116.633 30.342 121.916 28.0951 128.308C25.8482 134.7 26.1453 141.712 28.925 147.891C31.7047 154.07 36.7541 158.943 43.0277 161.502C53.3427 165.784 61.5445 173.974 65.8423 184.282C68.3872 190.564 73.2513 195.627 79.4268 198.42C85.6023 201.214 92.6159 201.525 99.0145 199.289C105.413 197.053 110.706 192.441 113.797 186.409C116.888 180.377 117.54 173.387 115.618 166.887ZM79.114 185.577C77.5964 184.063 76.4025 182.257 75.6048 180.267C70.2343 167.353 59.9636 157.094 47.0431 151.739C43.2676 150.209 40.2269 147.282 38.5531 143.568C36.8792 139.854 36.7009 135.637 38.0552 131.795C39.4095 127.953 42.1922 124.78 45.8251 122.936C49.4579 121.092 53.6616 120.719 57.5624 121.894C61.8293 123.125 66.2969 123.503 70.7099 123.007C75.123 122.511 79.395 121.15 83.282 119.002C86.7874 117.076 90.8231 116.34 94.7827 116.905C98.7422 117.469 102.412 119.303 105.24 122.131C108.068 124.959 109.901 128.629 110.465 132.588C111.029 136.548 110.293 140.584 108.367 144.089C106.219 147.976 104.858 152.247 104.362 156.66C103.865 161.073 104.243 165.54 105.474 169.807L105.489 169.858C106.494 173.235 106.344 176.85 105.063 180.133C103.783 183.415 101.444 186.176 98.4176 187.98C95.3912 189.784 91.8497 190.527 88.3534 190.092C84.8572 189.656 81.606 188.068 79.114 185.577Z" fill="white"/>
</svg>
